# xmcd
#
# Track frame offsets:
#	150
#	23582
#	38232
#	59292
#	80800
#	98880
#	116035
#	133865
#	159390
#
# Disc length: 2339 seconds
#
# Revision: 1
# Processed by: cddbd v1.5PL3 Copyright (c) Steve Scherf et al.
# Submitted via: CDex 1.50Beta5
#
DISCID=73092109
DTITLE=Baby Boo - うぶごえ音泉
DYEAR=1900
DGENRE=Pop
TTITLE0=Merry Christmas Mr. Lawrence
TTITLE1=めぐる季節
TTITLE2=氷の世界
TTITLE3=クリームシチュー（The Stew)
TTITLE4=風
TTITLE5=さらばシベリア鉄道
TTITLE6=春の手紙
TTITLE7=Little Christmas
TTITLE8=歩いて帰ろう
EXTD=
EXTT0=
EXTT1=
EXTT2=
EXTT3=
EXTT4=
EXTT5=
EXTT6=
EXTT7=
EXTT8=
PLAYORDER=
